<svg viewBox="0 -18 511.9996 511" xmlns="http://www.w3.org/2000/svg"><path d="m76.816406 462.242188c12.492188-12.492188 88.636719-88.636719 100.46875-100.464844 29.953125 14.957031 66.808594 18.027344 90.417969-5.582032 20.832031-20.832031 22.683594-56.125 5.601563-90.402343l234.296874-234.113281c3.679688-3.675782 5.191407-8.992188 3.996094-14.054688-1.191406-5.058594-4.921875-9.140625-9.851562-10.785156-44.355469-14.785156-93.300782-3.261719-126.398438 29.835937l-165.652344 165.480469c-34.296874-17.117188-69.617187-15.273438-90.457031 5.570312-23.484375 23.484376-20.667969 60.214844-5.582031 90.421876-10.929688 10.929687-89.457031 89.453124-100.46875 100.464843-17.582031 17.582031-17.585938 46.046875 0 63.632813 17.542969 17.539062 46.085938 17.539062 63.628906-.003906zm-42.417968-21.207032c-5.863282-5.863281-5.863282-15.347656 0-21.210937l10.605468-10.605469 21.210938 21.210938-10.605469 10.605468c-5.847656 5.847656-15.363281 5.847656-21.210937 0zm53.023437-74.234375 21.210937 21.207031-21.210937 21.210938-21.207031-21.210938zm309.128906-308.910156c18.847657-18.847656 44.070313-28.445313 69.78125-27.375l-251.648437 251.449219c-.292969.265625.269531-.285156 0 0l-21.207032-21.207032zm-256.105469 171.046875c9.753907-9.753906 27.476563-10.921875 46.441407-3.996094l-25.226563 25.199219c-5.855468 5.851563-5.863281 15.359375-.003906 21.214844l42.417969 42.421875c5.855469 5.851562 15.347656 5.855468 21.207031.003906l25.222656-25.203125c6.910156 18.949219 5.738282 36.660156-4.007812 46.40625-17.871094 17.871094-57.238282 6.394531-84.839844-21.207031-13.414062-13.417969-24.714844-31.003906-28.46875-49.753906-1.730469-8.660157-3.089844-24.738282 7.257812-35.085938zm0 106.046875c3.578126 3.578125 7.296876 6.941406 11.132813 10.078125l-21.738281 21.738281-21.207032-21.210937 21.734376-21.734375c3.136718 3.832031 6.503906 7.550781 10.078124 11.128906zm0 0"/></svg>